<?xml version="1.0" standalone="no"?>
<!DOCTYPE svg PUBLIC "-//W3C//DTD SVG 20010904//EN"
 "http://www.w3.org/TR/2001/REC-SVG-20010904/DTD/svg10.dtd">
<svg version="1.0" xmlns="http://www.w3.org/2000/svg"
 width="512.000000pt" height="512.000000pt" viewBox="0 0 512.000000 512.000000"
 preserveAspectRatio="xMidYMid meet">

<g transform="translate(0.000000,512.000000) scale(0.100000,-0.100000)"
fill="#fff" stroke="none">
<path d="M1628 4811 c-96 -78 -254 -241 -305 -316 -132 -195 -173 -326 -173
-549 0 -127 15 -223 48 -318 51 -144 203 -388 241 -388 15 0 19 12 24 78 12
178 133 404 372 699 110 135 519 543 700 697 83 70 151 134 153 142 3 12 -73
14 -492 14 l-495 0 -73 -59z"/>
<path d="M3574 4223 c-14 -118 -68 -255 -143 -363 -13 -19 -56 -69 -95 -110
-99 -104 -910 -955 -1016 -1065 -479 -498 -623 -657 -760 -841 -180 -241 -319
-492 -379 -686 l-33 -107 4 -178 c4 -175 5 -179 35 -238 36 -72 108 -165 127
-165 9 0 15 20 19 65 10 109 62 240 141 356 17 26 175 197 351 381 1342 1399
1441 1508 1643 1810 203 304 296 549 296 783 1 159 -33 258 -126 378 -42 52
-55 48 -64 -20z"/>
<path d="M2275 4177 c-25 -14 -40 -30 -40 -42 0 -12 15 -28 40 -42 39 -22 49
-23 284 -23 226 0 248 2 287 20 49 24 60 43 36 66 -39 39 -73 44 -324 44 -234
0 -245 -1 -283 -23z"/>
<path d="M2055 3827 c-37 -14 -60 -28 -60 -37 0 -9 23 -23 60 -37 58 -21 72
-22 500 -22 432 0 441 0 495 22 76 31 75 48 -2 75 -61 22 -74 22 -498 22 -422
-1 -437 -2 -495 -23z"/>
<path d="M1646 3728 c-45 -72 -90 -163 -116 -234 -36 -102 -43 -262 -14 -339
11 -29 107 -147 189 -234 119 -125 381 -339 437 -357 20 -6 46 17 200 177 115
120 178 191 178 205 0 16 -32 47 -112 111 -160 127 -327 283 -440 409 -97 109
-199 235 -232 287 -28 41 -52 34 -90 -25z"/>
<path d="M2265 3509 c-66 -35 -67 -57 -4 -89 35 -18 60 -20 290 -20 235 0 254
1 284 20 41 25 49 45 27 66 -39 39 -73 44 -319 44 -224 0 -241 -1 -278 -21z"/>
<path d="M2840 2304 c-96 -102 -176 -191 -178 -198 -1 -7 30 -38 70 -70 230
-181 472 -430 632 -649 29 -38 57 -67 67 -67 19 0 64 69 121 185 78 159 101
316 62 438 -18 56 -206 264 -349 386 -135 116 -199 161 -226 160 -18 0 -70
-49 -199 -185z"/>
<path d="M3667 1796 c-20 -233 -192 -519 -535 -892 -137 -148 -374 -374 -564
-536 -65 -56 -118 -107 -118 -114 0 -12 84 -14 492 -14 l491 0 51 39 c84 63
203 179 269 262 83 103 140 205 183 325 32 88 36 113 41 231 9 205 -21 346
-113 523 -53 102 -153 244 -175 248 -13 2 -17 -11 -22 -72z"/>
<path d="M2367 1678 c-50 -30 -47 -56 13 -85 42 -22 55 -23 280 -23 225 0 238
1 280 23 62 30 65 59 11 86 -37 20 -58 21 -293 21 -242 0 -255 -1 -291 -22z"/>
<path d="M2222 1336 c-35 -13 -66 -26 -69 -30 -14 -14 10 -34 65 -54 57 -21
73 -22 458 -22 391 1 400 1 454 24 75 30 76 48 3 78 -57 23 -64 23 -453 25
-393 2 -395 2 -458 -21z"/>
<path d="M2373 1009 c-49 -24 -59 -42 -35 -65 39 -39 74 -44 316 -44 250 0
304 8 327 51 11 22 -15 53 -57 69 -14 6 -134 10 -267 10 -224 0 -245 -2 -284
-21z"/>
</g>
</svg>
